<svg width="24" height="25" viewBox="0 0 24 25" fill="none" xmlns="http://www.w3.org/2000/svg">
<g id="Logo 8">
<path id="Vector" d="M12 24.5C18.6274 24.5 24 19.1274 24 12.5C24 5.87259 18.6274 0.5 12 0.5C5.37259 0.5 0 5.87259 0 12.5C0 19.1274 5.37259 24.5 12 24.5Z" fill="white"/>
<path id="Vector_2" d="M5.1443 12.2371C5.1443 12.2371 11.0885 9.70829 13.15 8.81781C13.9403 8.46165 16.6203 7.32185 16.6203 7.32185C16.6203 7.32185 17.8573 6.82322 17.7542 8.03421C17.7198 8.53289 17.445 10.2781 17.1701 12.1659C16.7578 14.8373 16.3111 17.7579 16.3111 17.7579C16.3111 17.7579 16.2424 18.5772 15.6583 18.7196C15.0742 18.8621 14.1121 18.221 13.9403 18.0785C13.8028 17.9717 11.3633 16.3688 10.47 15.5852C10.2295 15.3715 9.95462 14.9442 10.5043 14.4455C11.7413 13.2701 13.2187 11.8098 14.1121 10.8837C14.5244 10.4562 14.9367 9.45895 13.2187 10.6699C10.7792 12.4152 8.37408 14.0537 8.37408 14.0537C8.37408 14.0537 7.82432 14.4098 6.79355 14.0893C5.76273 13.7687 4.56015 13.3413 4.56015 13.3413C4.56015 13.3413 3.73557 12.807 5.1443 12.2371Z" fill="#34AADF"/>
</g>
</svg>
