<svg width="24" height="25" viewBox="0 0 24 25" fill="none" xmlns="http://www.w3.org/2000/svg">
<g id="Vector">
<path d="M0 24.4428L1.71374 18.0764C0.331652 15.5963 -0.107452 12.7023 0.477007 9.92538C1.06147 7.14846 2.63028 4.67491 4.89558 2.95862C7.16088 1.24233 9.9707 0.398433 12.8094 0.581785C15.6482 0.765136 18.3254 1.96344 20.3499 3.95679C22.3744 5.95015 23.6103 8.60486 23.8308 11.4338C24.0514 14.2627 23.2417 17.076 21.5505 19.3576C19.8593 21.6392 17.4 23.2359 14.6238 23.8547C11.8475 24.4736 8.94071 24.0731 6.43666 22.7267L0 24.4428ZM6.74702 20.3443L7.1451 20.5799C8.95884 21.6522 11.0773 22.0959 13.1702 21.8419C15.2632 21.588 17.2132 20.6505 18.7162 19.1757C20.2193 17.7009 21.191 15.7716 21.48 13.6884C21.769 11.6052 21.359 9.48518 20.314 7.65867C19.2689 5.83216 17.6474 4.40179 15.7022 3.59045C13.757 2.77912 11.5974 2.63239 9.55988 3.17314C7.52237 3.7139 5.72142 4.91175 4.43768 6.58004C3.15394 8.24832 2.45953 10.2933 2.46266 12.3964C2.46096 14.1401 2.94444 15.8502 3.8593 17.3361L4.10894 17.7466L3.15086 21.3L6.74702 20.3443Z" fill="white"/>
<path fill-rule="evenodd" clip-rule="evenodd" d="M16.2158 14.2173C15.9825 14.0296 15.7092 13.8974 15.4169 13.831C15.1246 13.7645 14.821 13.7654 14.5291 13.8337C14.0905 14.0154 13.8072 14.7019 13.5238 15.0451C13.464 15.1274 13.3762 15.1851 13.2768 15.2074C13.1775 15.2297 13.0734 15.215 12.984 15.1662C11.3785 14.539 10.0326 13.3887 9.16521 11.9022C9.09122 11.8095 9.0562 11.6917 9.06753 11.5737C9.07886 11.4557 9.13564 11.3467 9.22593 11.2696C9.54199 10.9576 9.77404 10.571 9.90063 10.1458C9.92874 9.67669 9.82101 9.20946 9.59027 8.79978C9.41189 8.22543 9.07242 7.714 8.61195 7.32594C8.37446 7.2194 8.11113 7.18368 7.85373 7.22308C7.59634 7.26249 7.35587 7.37534 7.16134 7.54803C6.82363 7.83865 6.55558 8.20114 6.37693 8.60878C6.19827 9.01643 6.11357 9.45885 6.12905 9.90348C6.13009 10.1532 6.16181 10.4018 6.22351 10.6438C6.38018 11.2252 6.62111 11.7806 6.93869 12.2926C7.16782 12.6847 7.41781 13.0644 7.68761 13.4299C8.56442 14.6305 9.66658 15.6499 10.9329 16.4314C11.5684 16.8286 12.2476 17.1515 12.957 17.3938C13.694 17.727 14.5077 17.8549 15.3117 17.764C15.7698 17.6948 16.2039 17.5144 16.5757 17.2386C16.9474 16.9628 17.2456 16.6001 17.4438 16.1824C17.5603 15.9301 17.5956 15.648 17.545 15.3749C17.4236 14.8163 16.6746 14.4865 16.2158 14.2173Z" fill="white"/>
</g>
</svg>
